<?xml version="1.0" standalone="no"?>
<!DOCTYPE svg PUBLIC "-//W3C//DTD SVG 20010904//EN"
 "http://www.w3.org/TR/2001/REC-SVG-20010904/DTD/svg10.dtd">
<svg version="1.0" xmlns="http://www.w3.org/2000/svg"
 width="400.000000pt" height="400.000000pt" viewBox="0 0 400.000000 400.000000"
 preserveAspectRatio="xMidYMid meet">
<metadata>
Created by potrace 1.11, written by Peter Selinger 2001-2013
</metadata>
<g transform="translate(0.000000,400.000000) scale(0.100000,-0.100000)"
fill="#000000" stroke="none">
<path d="M888 3788 c-151 -19 -287 -121 -347 -260 -113 -264 56 -560 334 -583
28 -3 49 1 57 9 11 10 16 10 25 1 21 -23 121 -6 203 33 131 63 220 208 222
361 3 265 -232 473 -494 439z m164 -226 c56 -27 93 -66 123 -129 20 -39 23
-61 21 -118 -4 -77 -24 -125 -79 -183 -33 -34 -120 -82 -150 -82 -12 0 -17 -9
-18 -32 l-1 -33 -7 29 c-4 20 -14 32 -31 36 -122 33 -219 152 -220 269 0 76
17 125 63 178 77 87 198 113 299 65z"/>
<path d="M2877 3763 c-1 0 -135 -4 -297 -7 -162 -4 -333 -8 -380 -10 -47 -2
-164 -7 -260 -11 -96 -4 -191 -8 -210 -10 -19 -2 -63 -5 -98 -6 -50 -2 -65 -6
-73 -21 -12 -23 -2 -78 14 -79 7 -1 26 -2 42 -4 105 -9 366 -21 680 -30 403
-11 539 -14 941 -15 l381 -1 1 -115 1 -114 -32 -1 c-18 0 -171 -2 -342 -4
-599 -7 -1191 -25 -1575 -48 -33 -3 -53 -37 -40 -71 5 -14 15 -27 22 -27 30
-3 260 -16 433 -24 229 -11 794 -23 1078 -24 l169 -1 -6 -52 c-4 -29 -8 -66
-10 -83 -14 -102 -21 -340 -21 -680 0 -400 7 -595 26 -717 6 -38 8 -75 6 -82
-4 -11 -29 -12 -114 -7 -253 14 -1199 5 -1314 -14 -13 -2 -55 -6 -94 -10 -149
-14 -145 -12 -145 -70 0 -49 -1 -49 120 -60 36 -3 79 -8 95 -10 33 -4 262 -18
412 -24 19 -1 21 -5 14 -28 -11 -39 -13 -181 -3 -224 9 -35 9 -36 -39 -57
-194 -90 -234 -350 -75 -490 20 -17 49 -38 64 -46 37 -19 118 -33 162 -28 127
14 239 134 236 252 -1 28 -6 35 -26 41 l-25 6 25 4 c30 5 34 41 13 111 -15 53
-80 126 -131 149 -26 11 -32 18 -27 34 12 39 17 191 7 230 l-9 41 241 2 c225
2 307 4 591 17 108 5 216 13 265 20 14 2 44 6 68 10 l43 7 -3 46 c-3 44 -5 47
-38 53 -34 7 -136 18 -174 19 -17 0 -18 6 -11 68 12 111 13 123 22 237 16 221
8 1051 -12 1195 -2 14 -6 50 -10 81 l-6 55 147 1 c229 2 223 -8 221 330 l-2
243 -28 27 -27 28 -441 0 c-242 0 -441 -1 -442 -2z m-383 -2933 c19 -18 38
-41 41 -51 4 -11 14 -19 22 -19 9 0 13 -3 9 -7 -4 -5 -10 -7 -13 -5 -3 2 -16
-14 -29 -35 -32 -55 -78 -78 -137 -69 -114 17 -138 165 -34 212 47 21 99 12
141 -26z"/>
<path d="M489 2835 c-148 -39 -265 -159 -298 -305 -11 -49 -7 -148 9 -260 6
-41 13 -95 16 -120 3 -25 7 -58 10 -75 3 -16 7 -48 10 -70 4 -41 8 -70 24
-190 6 -38 12 -86 14 -105 10 -84 65 -184 126 -230 54 -41 58 -47 65 -112 4
-35 9 -72 11 -82 2 -11 6 -42 9 -70 3 -28 8 -58 10 -66 2 -8 7 -40 10 -70 3
-30 8 -66 10 -80 3 -14 7 -43 10 -65 4 -37 31 -226 39 -285 2 -14 7 -47 11
-75 26 -200 34 -235 57 -278 13 -22 43 -55 66 -72 l44 -30 198 0 198 0 43 30
c49 35 85 98 93 165 11 87 16 136 21 210 3 41 8 86 10 100 2 14 6 59 10 100 3
41 13 136 21 210 8 74 17 155 20 180 2 25 7 61 9 80 3 19 7 58 10 85 3 28 8
64 10 80 2 17 7 57 10 90 3 33 8 71 10 85 2 14 6 54 10 90 4 36 8 76 10 90 2
14 6 54 10 90 4 36 8 76 10 90 7 42 18 154 17 172 0 10 3 20 8 23 5 3 61 -35
124 -84 122 -95 162 -112 199 -88 19 13 24 13 36 0 19 -21 66 -10 121 29 188
133 513 384 535 412 32 43 46 88 46 148 -2 156 -164 267 -313 214 -40 -14 -82
-43 -270 -189 -76 -58 -133 -95 -140 -91 -6 4 -46 37 -88 73 -75 65 -131 112
-220 186 -25 21 -61 45 -80 53 -49 21 -254 24 -295 4 -16 -8 -63 -57 -104
-108 -41 -52 -77 -94 -80 -94 -3 1 -26 28 -51 61 -25 33 -64 82 -87 107 l-41
47 -114 1 c-62 1 -134 -4 -159 -11z m914 -217 c31 -24 123 -97 204 -164 82
-67 159 -127 172 -133 44 -24 42 -25 408 272 40 32 85 61 100 63 34 5 92 -28
94 -53 1 -10 3 -29 4 -42 3 -31 -43 -77 -240 -241 -82 -69 -152 -127 -155
-130 -16 -17 -119 -99 -142 -113 -16 -10 -28 -24 -28 -31 0 -9 -10 -5 -29 12
-15 15 -59 53 -97 84 -38 32 -80 68 -94 80 -61 56 -147 126 -165 135 -24 13
-60 1 -73 -24 -9 -15 -19 -74 -48 -283 -3 -19 -12 -75 -19 -125 -8 -49 -17
-110 -20 -135 -3 -25 -8 -56 -10 -70 -6 -35 -13 -78 -20 -130 -3 -25 -12 -85
-20 -135 -8 -49 -16 -112 -20 -140 -3 -27 -7 -61 -10 -75 -6 -32 -12 -72 -20
-140 -4 -30 -9 -63 -11 -73 -2 -10 -8 -64 -14 -120 -6 -56 -13 -113 -15 -127
-2 -14 -7 -52 -10 -85 -4 -33 -8 -71 -10 -85 -2 -14 -6 -50 -10 -80 -12 -107
-17 -135 -25 -144 -8 -8 -266 -13 -274 -5 -4 4 -10 40 -21 124 -3 22 -7 51 -9
65 -2 14 -8 52 -12 85 -4 33 -8 62 -9 65 -1 3 -5 34 -9 70 -5 36 -10 73 -12
84 -2 10 -6 44 -10 75 -3 31 -8 63 -9 72 -2 9 -6 40 -10 70 -3 30 -8 65 -10
79 -2 14 -7 43 -10 65 -22 170 -45 306 -54 324 -7 11 -26 28 -44 37 -66 34
-103 82 -112 151 -3 21 -8 49 -10 63 -2 14 -7 43 -9 65 -10 73 -37 280 -41
305 -2 14 -6 46 -9 72 -3 26 -8 62 -11 80 -25 166 5 248 112 302 33 16 173 23
173 9 0 -5 13 -21 28 -38 15 -16 55 -64 89 -106 63 -77 96 -99 152 -99 45 0
84 34 176 149 l88 111 68 0 c64 0 70 -2 122 -42z"/>
</g>
</svg>
